<?xml version="1.0" encoding="utf-8"?>
<svg viewBox="0 0 255.1 255.1" style="enable-background:new 0 0 255.1 255.1;" xmlns="http://www.w3.org/2000/svg">
  <defs>
    <style type="text/css">
	.st0{fill:#5B5466;}
	.st1{fill-rule:evenodd;clip-rule:evenodd;fill:#FFFFFF;}
</style>
  </defs>
  <circle class="st0" cx="127.6" cy="127.6" r="121.6" style="visibility: hidden;"/>
  <path class="st1" d="M 50.237 127.6 C 50.237 84.873 84.873 50.237 127.6 50.237 C 170.327 50.237 204.963 84.873 204.963 127.6 C 204.963 170.327 170.327 204.963 127.6 204.963 C 84.873 204.963 50.237 170.327 50.237 127.6 Z M 107.525 189.876 C 111.065 190.348 114.693 190.594 118.386 190.594 C 157.706 190.594 189.58 162.8 189.58 128.517 C 189.58 94.232 157.705 66.44 118.386 66.44 C 115.748 66.44 113.142 66.566 110.581 66.809 C 130.085 79.693 142.982 102.013 142.982 127.388 C 142.98 154.066 128.728 177.365 107.525 189.876 Z" style=""/>
</svg>