<?xml version="1.0" encoding="utf-8"?>
<svg viewBox="0 0 255.1 255.1" style="enable-background:new 0 0 255.1 255.1;" xmlns="http://www.w3.org/2000/svg">
  <defs>
    <style type="text/css">
	.st0{fill:#FB89EB;}
	.st1{fill-rule:evenodd;clip-rule:evenodd;fill:#FFFFFF;}
</style>
  </defs>
  <path d="M 249.2 127.6 C 249.2 194.758 194.758 249.2 127.6 249.2 C 60.442 249.2 6 194.758 6 127.6 C 6 60.442 60.442 6 127.6 6 C 194.758 6 249.2 60.442 249.2 127.6 Z M 73.964 180.088 L 102.703 171.755 L 127.525 217.141 C 127.558 217.2 127.642 217.2 127.674 217.141 L 152.496 171.755 L 181.235 180.088 C 181.299 180.107 181.359 180.047 181.34 179.982 L 173.006 151.812 L 217.14 127.674 C 217.199 127.642 217.199 127.557 217.14 127.525 L 172.642 103.188 L 181.34 73.788 C 181.359 73.724 181.299 73.664 181.235 73.682 L 151.822 82.211 L 127.674 38.058 C 127.642 37.999 127.557 37.999 127.525 38.058 L 103.377 82.211 L 73.964 73.682 C 73.9 73.663 73.84 73.723 73.859 73.788 L 82.557 103.188 L 38.059 127.525 C 38 127.557 38 127.642 38.059 127.674 L 82.193 151.812 L 73.859 179.982 C 73.84 180.047 73.9 180.107 73.964 180.088 Z" class="st0" style="visibility: hidden;"/>
  <path class="st1" d="M 96.265 127.91 L 116.625 139.045 L 127.76 159.405 C 127.792 159.464 127.877 159.464 127.909 159.405 L 139.044 139.045 L 159.404 127.91 C 159.463 127.878 159.463 127.793 159.404 127.761 L 139.044 116.626 L 127.909 96.266 C 127.877 96.207 127.792 96.207 127.76 96.266 L 116.625 116.626 L 96.265 127.761 C 96.207 127.793 96.207 127.877 96.265 127.91 Z" style="fill: rgb(251, 137, 235); visibility: hidden;"/>
</svg>