<?xml version="1.0" encoding="utf-8"?>
<svg viewBox="0 0 255.1 255.1" style="enable-background:new 0 0 255.1 255.1;" xmlns="http://www.w3.org/2000/svg">
  <defs>
    <style type="text/css">
	.st0{fill:#4C6AB2;}
	.st1{fill:#FEFEFE;}
</style>
  </defs>
  <path d="M 249.2 127.6 C 249.2 194.758 194.758 249.2 127.6 249.2 C 60.442 249.2 6 194.758 6 127.6 C 6 60.442 60.442 6 127.6 6 C 194.758 6 249.2 60.442 249.2 127.6 Z M 192.672 195.691 C 191.788 195.205 190.912 194.705 190.035 194.205 C 189.68 194.003 189.321 193.808 188.968 193.604 C 186.55 192.202 184.532 190.328 182.782 188.175 C 180.358 185.194 179.944 181.949 181.676 178.473 C 182.178 177.467 182.987 176.709 183.704 175.873 C 202.404 154.071 208.181 129.265 199.736 101.795 C 189.111 67.231 154.674 44.048 116.419 48.385 C 99.977 50.249 85.308 56.599 73.199 67.911 C 51.529 88.155 43.628 112.996 49.594 142.138 C 56.953 170.088 73.97 187.002 100.692 197.977 C 108.078 200.511 116.843 202.566 124.539 203.811 C 130.415 204.761 135.629 205.011 141.553 205.053 C 144.51 205.074 147.64 205.045 151.123 205.023 C 157.472 205.088 159.957 204.828 164.343 204.429 C 173.918 203.557 183.019 200.802 191.812 196.977 C 192.101 196.851 192.387 196.719 192.675 196.593 C 193.374 196.288 193.252 196.01 192.672 195.691 Z M 136.005 118.04 C 135.899 117.501 135.812 116.953 135.78 116.405 C 135.697 115.002 135.873 114.842 137.181 115.401 C 141.02 117.042 144.95 117.319 148.954 116.211 C 155.637 114.362 160.557 108.524 161.36 101.627 C 161.426 101.059 161.094 100.209 161.888 100.001 C 162.517 99.836 163.016 100.458 163.513 100.826 C 169.379 105.171 171.857 113.028 169.579 120.021 C 167.211 127.287 160.631 132.041 152.967 132.022 C 144.655 132.001 137.605 126.193 136.005 118.04 Z M 115.134 117.261 C 113.779 125.89 106.608 132.046 97.879 132.022 C 90.518 132.002 84.072 127.453 81.599 120.534 C 79.141 113.655 81.262 105.938 86.89 101.306 C 87.315 100.956 87.751 100.612 88.216 100.321 C 89.211 99.698 89.396 99.765 89.532 100.925 C 89.81 103.295 90.407 105.562 91.523 107.679 C 95.623 115.455 104.875 118.924 113.161 115.619 C 115.663 114.621 115.447 115.265 115.134 117.261 Z" class="st0"/>
  <path class="st1" d="M 136.005 118.04 C 135.899 117.501 135.81199999999998 116.953 135.78 116.405 C 135.697 115.002 135.873 114.842 137.181 115.401 C 141.02 117.042 144.95000000000002 117.319 148.954 116.211 C 155.637 114.362 160.55700000000002 108.524 161.36 101.627 C 161.42600000000002 101.059 161.09400000000002 100.20899999999999 161.888 100.00099999999999 C 162.517 99.83599999999998 163.01600000000002 100.45799999999998 163.513 100.826 C 169.37900000000002 105.17099999999999 171.857 113.02799999999999 169.579 120.02099999999999 C 167.211 127.28699999999999 160.631 132.041 152.967 132.022 C 144.655 132.001 137.605 126.193 136.005 118.04 Z" style="fill: rgb(76, 106, 178);"/>
  <path class="st1" d="M 115.134 117.261 C 113.779 125.89 106.608 132.046 97.879 132.022 C 90.518 132.00199999999998 84.072 127.45299999999999 81.599 120.53399999999999 C 79.141 113.65499999999999 81.262 105.93799999999999 86.89 101.30599999999998 C 87.315 100.95599999999999 87.751 100.61199999999998 88.216 100.32099999999998 C 89.211 99.69799999999998 89.396 99.76499999999999 89.532 100.92499999999998 C 89.81 103.29499999999999 90.407 105.56199999999998 91.523 107.67899999999999 C 95.62299999999999 115.45499999999998 104.875 118.92399999999999 113.161 115.61899999999999 C 115.663 114.621 115.447 115.265 115.134 117.261 Z" style="fill: rgb(76, 106, 178);"/>

</svg>