<?xml version="1.0" encoding="utf-8"?>
<svg viewBox="0 0 255.1 255.1" style="enable-background:new 0 0 255.1 255.1;" xmlns="http://www.w3.org/2000/svg">
  <defs>
    <style type="text/css">
	.st0{fill:#4CD1C0;}
	.st1{fill:#FFFFFF;}
</style>
  </defs>
  <path d="M 249.2 127.6 C 249.2 194.758 194.758 249.2 127.6 249.2 C 60.442 249.2 6 194.758 6 127.6 C 6 60.442 60.442 6 127.6 6 C 194.758 6 249.2 60.442 249.2 127.6 Z M 36.572 127.629 L 80.008 148.709 L 123.443 127.624 L 80.008 106.491 Z M 175.192 106.491 L 131.757 127.624 L 175.192 148.709 L 218.628 127.629 Z M 175.192 52.127 L 131.757 74.989 L 131.757 119.755 L 132.087 119.591 L 132.704 119.284 L 175.18 98.148 L 175.179 98.147 L 175.192 98.141 Z M 175.192 157.059 L 175.179 157.053 L 175.18 157.052 L 132.704 135.916 L 132.087 135.609 L 131.757 135.445 L 131.757 180.211 L 175.192 203.073 Z M 80.008 98.141 L 80.021 98.147 L 80.02 98.148 L 122.496 119.284 L 123.113 119.591 L 123.443 119.755 L 123.443 74.989 L 80.008 52.127 Z M 80.008 203.073 L 123.443 180.211 L 123.443 135.445 L 123.113 135.609 L 122.496 135.916 L 80.02 157.052 L 80.021 157.053 L 80.008 157.059 Z" class="st0"/>
  
</svg>