<?xml version="1.0" encoding="utf-8"?>
<svg viewBox="0 0 255.1 255.1" style="enable-background:new 0 0 255.1 255.1;" xmlns="http://www.w3.org/2000/svg">
  <defs>
    <style type="text/css">
	.st0{fill:#C8B686;}
	.st1{fill-rule:evenodd;clip-rule:evenodd;fill:#FFFFFF;}
</style>
  </defs>
  <path d="M 249.2 127.6 C 249.2 194.758 194.758 249.2 127.6 249.2 C 60.442 249.2 6 194.758 6 127.6 C 6 60.442 60.442 6 127.6 6 C 194.758 6 249.2 60.442 249.2 127.6 Z M 194.136 152.013 C 194.156 152.04 194.194 152.046 194.221 152.025 L 212.099 138.067 C 212.118 138.051 212.127 138.025 212.119 138.001 L 187.872 61.23 C 187.864 61.205 187.841 61.188 187.815 61.188 L 184.409 61.188 C 184.38 61.188 184.355 61.209 184.35 61.238 L 173.588 123.994 C 173.585 124.01 173.589 124.027 173.599 124.04 Z M 95.328 180.82 L 135.589 194.008 C 135.607 194.014 135.627 194.011 135.643 194 L 183.576 159.617 C 183.603 159.598 183.609 159.562 183.591 159.535 L 165.622 132.796 C 165.603 132.768 165.566 132.761 165.538 132.78 Z M 43.077 165.643 C 43.077 165.669 43.094 165.692 43.118 165.7 L 79.971 177.75 C 79.989 177.756 80.009 177.753 80.024 177.742 L 162.398 120.873 C 162.412 120.863 162.421 120.849 162.423 120.832 L 171.257 61.56 C 171.263 61.524 171.234 61.491 171.198 61.491 L 98.235 61.491 C 98.217 61.491 98.2 61.499 98.189 61.513 L 43.091 127.98 C 43.082 127.991 43.077 128.004 43.077 128.019 Z" class="st0"/>
 
</svg>