<svg xmlns="http://www.w3.org/2000/svg" viewBox="0 0 24 25.2" width="2em" height="2em"><path class="st2" d="M11.61 3.07c-.04.2-.84 1.2-1.8 2.32l-1.76 2-.96-.96c-.96-.88-1.04-.88-1.4-.16-.2.4-.88 2.6-1.48 4.88C2.92 16.08 3 16.4 6.04 18.8c2.56 2 4.8 3.2 6.08 3.2 1.16 0 5.36-2.52 7.32-4.36 1.32-1.28 1.44-1.52 1.24-3-.24-1.68-2.2-8.68-2.52-9.01-.08-.08-.56.2-1.08.68-.52.48-1.04.88-1.16.88-.12 0-1-1-1.92-2.2-1.56-2.04-2.36-2.68-2.39-1.92zM8.56 14.04c1.24 1.12 2.24 2.19 2.24 2.36 0 .56-2.16 1.12-3.08.76-.48-.16-1.04-.68-1.28-1.08-.64-1.2-1-4.08-.52-4.08.24-.01 1.44.91 2.64 2.04zm9.64-.17c-.32 2.36-1.16 3.32-2.76 3.32-2.64 0-2.64-.64-.04-3 1.32-1.2 2.56-2.2 2.76-2.2.17 0 .21.85.04 1.88z"/><path class="st3" d="M20.7.9c-.4 1.3-1.5 2.4-2.7 2.7-.4.1-.4.1 0 .2 1.3.4 2.4 1.5 2.8 2.9l.1.4.1-.4c.5-1.5 1.5-2.6 2.8-2.9.3-.1.3-.1-.1-.2-1.3-.4-2.3-1.4-2.7-2.7-.1-.2-.1-.4-.1-.4-.1 0-.2.1-.2.4M3 19c-.4 1.3-1.5 2.4-2.7 2.7-.4.1-.4.1 0 .2 1.3.4 2.4 1.5 2.8 2.9l.1.4.1-.4c.5-1.5 1.5-2.6 2.8-2.9.3-.1.3-.1-.1-.2-1.3-.4-2.3-1.4-2.7-2.7-.1-.2-.1-.4-.1-.4s-.1.1-.2.4"/></svg>