<svg xmlns="http://www.w3.org/2000/svg" width="2em" height="2em" viewBox="0 0 58 61"><path d="M28 6.7c-.1.5-2.1 3-4.5 5.8l-4.4 5-2.4-2.4c-2.4-2.2-2.6-2.2-3.5-.4-.5 1-2.2 6.5-3.7 12.2C6.3 39.2 6.5 40 14.1 46c6.4 5 12 8 15.2 8 2.9 0 13.4-6.3 18.3-10.9 3.3-3.2 3.6-3.8 3.1-7.5-.6-4.2-5.5-21.7-6.3-22.5-.2-.2-1.4.5-2.7 1.7S39.1 17 38.8 17s-2.5-2.5-4.8-5.5c-3.9-5.1-5.9-6.7-6-4.8zm-7.6 27.4c3.1 2.8 5.6 5.5 5.6 5.9 0 1.4-5.4 2.8-7.7 1.9-1.2-.4-2.6-1.7-3.2-2.7-1.6-3-2.5-10.2-1.3-10.2.6 0 3.6 2.3 6.6 5.1zm24.1-.4c-.8 5.9-2.9 8.3-6.9 8.3-6.6 0-6.6-1.6-.1-7.5 3.3-3 6.4-5.5 6.9-5.5.4 0 .5 2.1.1 4.7z"/></svg>