<svg xmlns="http://www.w3.org/2000/svg" viewBox="0 0 24 25.2" width="2em" height="2em"><path class="st3" d="M20.7.9c-.4 1.3-1.5 2.4-2.7 2.7-.4.1-.4.1 0 .2 1.3.4 2.4 1.5 2.8 2.9l.1.4.1-.4c.5-1.5 1.5-2.6 2.8-2.9.3-.1.3-.1-.1-.2-1.3-.4-2.3-1.4-2.7-2.7-.1-.2-.1-.4-.1-.4-.1 0-.2.1-.2.4M3 19c-.4 1.3-1.5 2.4-2.7 2.7-.4.1-.4.1 0 .2 1.3.4 2.4 1.5 2.8 2.9l.1.4.1-.4c.5-1.5 1.5-2.6 2.8-2.9.3-.1.3-.1-.1-.2-1.3-.4-2.3-1.4-2.7-2.7-.1-.2-.1-.4-.1-.4s-.1.1-.2.4"/><path class="st2" d="M19.4 17.5c-.1 2.6-1.1 4.2-3 5.2-2.5 1.3-5.1 1.3-7.6 0-2.4-1.2-3.7-3.9-2.8-6.4.6-1.7.7-3.4.8-5.1.1-1.8.8-2.4 2.2-1.2 2.5 2 4.7 2.1 7.2 0 1.4-1.2 2.2-.7 2.2 1.2 0 2.3.6 4.5 1 6.3zm-8.1 0c-.2-.6-.1-1.5-.9-1.5-.6 0-.8.7-.8 1.3 0 .6 0 1.5.8 1.6.8.1.7-.8.9-1.4zm4.3-.1c-.1-.5-.1-1.3-.8-1.4-.8 0-.9.8-.8 1.4 0 .6 0 1.5.9 1.5.7 0 .6-.8.7-1.5zM11.5 3.8c0-.6-.1-1.2 0-1.8.1-.6.5-1 1.1-1 .6 0 1 .4 1 .9.1 1.3.1 2.5 0 3.8 0 .5-.4.9-1 1-.6 0-1-.4-1.1-1-.1-.7 0-1.3 0-1.9z"/><path class="st2" d="M12.6 7.6c.7.1 1.1.6 1 1.3-.1.6-.5 1-1.1.9-.7 0-1-.5-1-1.1 0-.7.4-1.1 1.1-1.1z"/></svg>