<svg xmlns="http://www.w3.org/2000/svg" viewBox="0 0 24 25.2" width="2em" height="2em"><path class="st2" d="M19.5 18.2c-.1 2.9-1.2 4.6-3.3 5.7-2.7 1.4-5.5 1.4-8.2 0-2.6-1.3-4-4.2-3-7 .6-1.8.7-3.6.8-5.5.1-2.1.8-2.6 2.4-1.4 2.7 2.2 5.1 2.3 7.8 0 1.5-1.3 2.4-.7 2.4 1.3 0 2.6.7 5 1.1 6.9zm-8.8 0c-.2-.6-.1-1.6-1-1.6-.7 0-.8.8-.8 1.4 0 .7 0 1.6.9 1.7.8.1.7-.9.9-1.5zm4.7-.1c-.1-.6-.1-1.4-.9-1.5-.8 0-.9.9-.9 1.5 0 .7 0 1.6.9 1.6.8 0 .8-.9.9-1.6zM10.9 3.4c0-.7-.1-1.3 0-2S11.4.3 12.1.3c.6 0 1.1.4 1.1 1 .1 1.4.1 2.7 0 4.1 0 .6-.5 1-1.1 1-.7 0-1.1-.4-1.2-1.1V3.4z"/><path class="st2" d="M12.2 7.5c.8.1 1.2.6 1.1 1.4-.1.7-.5 1.1-1.2 1-.7 0-1.1-.5-1.1-1.2 0-.8.4-1.2 1.2-1.2z"/></svg>