<svg xmlns="http://www.w3.org/2000/svg" viewBox="0 0 24 25.2" height="2em" width="2em"><path class="st2" d="M2 20.7c.1-.2.1-.7.3-.8 1.8-1.3 1.3-2.8.6-4.5-1-2.3-.8-4.7.4-6.9.6-1.1.7-2-.4-2.9-.9-.8-1.5-2-.5-2.9 1-1 2.1-.3 2.9.6.8.9 1.6.9 2.7.3 2.7-1.4 5.5-1.4 8.2 0 1.2.6 2 .4 2.9-.5.7-.9 1.8-1.2 2.7-.4 1 .9.6 2.1-.4 2.9-1.1.9-1 1.7-.4 2.9 1.3 2.6 1.3 5.3 0 8-.6 1.1-.7 2 .4 2.9.9.8 1.4 1.9.4 2.9-1 .9-2.1.4-2.9-.6-.8-1-1.6-.9-2.6-.4-2.5 1.3-5.2 1.4-7.7.2-1.4-.7-2.5-.9-3.6.5-.6.7-1.4.8-2.3.4-.6-.4-.7-.9-.7-1.7zM9.4 10c-.3-.8.7-2.4-.9-2.5-1.8-.1-1.2 1.6-1.3 2.7v1.1c0 .8.2 1.5 1.2 1.6 1.1 0 1-.8 1.1-1.5-.1-.5-.1-.9-.1-1.4zm7.6.1c0-.3.1-.5 0-.8 0-.8 0-1.8-1.1-1.8-1.3-.1-1.1 1-1.1 1.8v2.5c0 .6.2 1.1.9 1.2.8.1 1.2-.4 1.3-1.1v-1.8zm-4.7 5.6h-1.1c-.7 0-1.7-.2-1.7.8-.1 1.1 1 .9 1.6.9h2.5c.6 0 1.2-.1 1.2-.8 0-.7-.5-.9-1.1-.9h-1.4z"/></svg>