<svg xmlns="http://www.w3.org/2000/svg" viewBox="0 0 24 25.2" height="2em" width="2em"><path class="st3" d="M20.7.9c-.4 1.3-1.5 2.4-2.7 2.7-.4.1-.4.1 0 .2 1.3.4 2.4 1.5 2.8 2.9l.1.4.1-.4c.5-1.5 1.5-2.6 2.8-2.9.3-.1.3-.1-.1-.2-1.3-.4-2.3-1.4-2.7-2.7-.1-.2-.1-.4-.1-.4-.1 0-.2.1-.2.4M3 19c-.4 1.3-1.5 2.4-2.7 2.7-.4.1-.4.1 0 .2 1.3.4 2.4 1.5 2.8 2.9l.1.4.1-.4c.5-1.5 1.5-2.6 2.8-2.9.3-.1.3-.1-.1-.2-1.3-.4-2.3-1.4-2.7-2.7-.1-.2-.1-.4-.1-.4s-.1.1-.2.4"/><path class="st2" d="M4.5 19.1c.1-.1.1-.5.2-.6 1.3-1 1-2 .4-3.3-.7-1.7-.6-3.5.3-5.1.5-.9.6-1.5-.2-2.2-.7-.6-1.1-1.4-.3-2.1.7-.7 1.5-.3 2.1.4.6.7 1.2.7 2 .3 2-1 4.1-1 6.1 0 .9.5 1.5.3 2.1-.4.5-.6 1.3-.9 2-.3.8.7.4 1.5-.3 2.1-.8.7-.7 1.3-.3 2.1 1 1.9 1 4 0 5.9-.4.8-.5 1.5.3 2.1.7.6 1.1 1.4.3 2.1-.7.7-1.5.3-2.1-.4-.6-.7-1.2-.7-2-.3-1.9.9-3.8 1.1-5.7.2-1.1-.5-1.9-.7-2.6.4-.4.5-1.1.6-1.7.3-.5-.2-.6-.6-.6-1.2zm5.5-7.9c-.2-.6.5-1.8-.7-1.9-1.4-.1-.9 1.2-1 2v.8c0 .6.2 1.1.9 1.2.8 0 .8-.6.8-1.1v-1zm5.6.1v-.6c0-.6 0-1.3-.8-1.4-1-.1-.8.7-.8 1.3v1.8c0 .4.2.8.6.9.6.1.9-.3 1-.8v-1.2zm-3.5 4.1h-.8c-.5 0-1.2-.1-1.3.6 0 .8.7.6 1.2.7H13c.4 0 .9-.1.9-.6s-.4-.6-.8-.7h-1z"/></svg>