<svg xmlns="http://www.w3.org/2000/svg" width="2em" height="2em" viewBox="0 0 400 400"><path d="M238.516 10.377c-2.122 5.121-10.428 12.872-16.557 15.449l-4.198 1.765 4.973 2.372c4.854 2.314 9.037 6.202 16.382 15.222l3.62 4.445 1.428-3.732c1.427-3.729 12.694-15.042 16.685-16.753 1.695-.727 1.546-1.283-.752-2.804-6.7-4.435-15.768-13.691-16.579-16.923-1.18-4.703-2.784-4.395-5.002.959M340.996 40.5c-2.21 8.005-11.077 18.152-20.515 23.479l-8.078 4.559 6.349 2.843c9.906 4.435 15.782 9.647 20.701 18.364 5.354 9.486 5.122 9.397 7.791 3.011 2.998-7.176 12.175-16.808 20.594-21.617l7.238-4.134-6.987-3.489c-9.106-4.548-17.455-12.763-21.939-21.586l-3.595-7.074-1.559 5.644m-68.403 66.206c0 14.3-24.623 40.284-44.26 46.707l-7.872 2.575 13.373 6.432c19.487 9.373 38.759 31.723 38.759 44.95 0 5.938 2.779 2.803 6.767-7.634 5.642-14.764 20.133-29.542 36.786-37.515l11.703-5.603-7.669-3.124c-17.717-7.217-37.862-27.549-42.348-42.74-1.986-6.726-5.239-9.24-5.239-4.048m-123.564 52.417c-16.874 51.299-59.973 92.992-109.708 106.131-15.372 4.061-15.473 4.481-1.914 7.946 53.947 13.786 98.296 57.873 113.722 113.05l3.931 14.062 4.842-15.341c18.117-57.403 60.804-99.375 113.767-111.861 13.738-3.239 13.664-3.389-4.211-8.516-52.126-14.949-90.645-52.632-108.647-106.287-2.733-8.146-5.252-15.094-5.598-15.44-.347-.346-3.129 6.969-6.184 16.256"/></svg>