<svg xmlns="http://www.w3.org/2000/svg" viewBox="0 0 24 25.2"><path class="st3" d="M20.7.9c-.4 1.3-1.5 2.4-2.7 2.7-.4.1-.4.1 0 .2 1.3.4 2.4 1.5 2.8 2.9l.1.4.1-.4c.5-1.5 1.5-2.6 2.8-2.9.3-.1.3-.1-.1-.2-1.3-.4-2.3-1.4-2.7-2.7-.1-.2-.1-.4-.1-.4-.1 0-.2.1-.2.4M3 19c-.4 1.3-1.5 2.4-2.7 2.7-.4.1-.4.1 0 .2 1.3.4 2.4 1.5 2.8 2.9l.1.4.1-.4c.5-1.5 1.5-2.6 2.8-2.9.3-.1.3-.1-.1-.2-1.3-.4-2.3-1.4-2.7-2.7-.1-.2-.1-.4-.1-.4s-.1.1-.2.4"/><path class="st2" d="M12 21.6c3.8 0 6.9-3.1 6.9-6.9 0-3.2-2.2-5.8-5.1-6.6l1.9-2.4c.7-.9.6-2.2-.3-2.9-.4-.3-.8-.5-1.3-.5-.6 0-1.2.3-1.6.8-6.3 7.8-5.8 7.3-5.9 7.4-.9 1.2-1.4 2.7-1.4 4.1-.1 3.9 3 7 6.8 7zm2.7-6.9c0 1.5-1.2 2.7-2.7 2.7s-2.7-1.2-2.7-2.7c0-.3 0-.5.1-.8.3-1.2 1.4-2 2.6-2 1.5.1 2.7 1.3 2.7 2.8z"/></svg>