<svg xmlns="http://www.w3.org/2000/svg" viewBox="0 0 320 512"><path d="M160 480c88.219 0 160-71.781 160-160 0-74.055-50.834-135.936-119.26-154.088L245.469 110c16.562-20.719 13.218-50.906-7.469-67.469C229.125 35.438 218.531 32 208.031 32c-14.093 0-28.031 6.156-37.5 18C24.534 232.488 34.612 219.808 31.994 223.34 11.338 251.201 0 285.291 0 320c0 88.219 71.781 160 160 160Zm64-160c0 35.281-28.719 64-64 64s-64-28.719-64-64c0-6.25.875-12.406 2.625-18.344C106.656 274.781 131.906 256 160 256c35.281 0 64 28.719 64 64Z"/></svg>