<svg xmlns="http://www.w3.org/2000/svg" viewBox="0 0 24 25.2" height="2em" width="2em"><path class="st3" d="M20.7.9c-.4 1.3-1.5 2.4-2.7 2.7-.4.1-.4.1 0 .2 1.3.4 2.4 1.5 2.8 2.9l.1.4.1-.4c.5-1.5 1.5-2.6 2.8-2.9.3-.1.3-.1-.1-.2-1.3-.4-2.3-1.4-2.7-2.7-.1-.2-.1-.4-.1-.4-.1 0-.2.1-.2.4M3 19c-.4 1.3-1.5 2.4-2.7 2.7-.4.1-.4.1 0 .2 1.3.4 2.4 1.5 2.8 2.9l.1.4.1-.4c.5-1.5 1.5-2.6 2.8-2.9.3-.1.3-.1-.1-.2-1.3-.4-2.3-1.4-2.7-2.7-.1-.2-.1-.4-.1-.4s-.1.1-.2.4"/><path class="st2" d="M12 3.1c-3.7 0-6.6 3-6.6 6.6V15c0 3.7 3 6.6 6.6 6.6s6.6-3 6.6-6.6V9.7c0-3.6-2.9-6.6-6.6-6.6zM14.7 15c0 1.5-1.2 2.7-2.7 2.7S9.3 16.5 9.3 15V9.7C9.3 8.2 10.5 7 12 7s2.7 1.2 2.7 2.7V15z"/></svg>