<svg viewBox="0 0 255.1 255.1" style="enable-background:new 0 0 255.1 255.1" xmlns="http://www.w3.org/2000/svg">
  <defs>
    <style>
      .st0{fill:#fb89eb}
    </style>
  </defs>
  <path d="m73.859 179.982 8.334-28.17-44.134-24.138a.085.085 0 0 1 0-.149l44.498-24.337-8.698-29.4a.085.085 0 0 1 .105-.106l29.413 8.529 24.148-44.153a.085.085 0 0 1 .149 0l24.148 44.153 29.413-8.529a.085.085 0 0 1 .105.106l-8.698 29.4 44.498 24.337a.085.085 0 0 1 0 .149l-44.134 24.138 8.334 28.17a.085.085 0 0 1-.105.106l-28.739-8.333-24.822 45.386a.085.085 0 0 1-.149 0l-24.822-45.386-28.739 8.333a.085.085 0 0 1-.105-.106Zm22.406-52.072 20.36 11.135 11.135 20.36a.085.085 0 0 0 .149 0l11.135-20.36 20.36-11.135a.085.085 0 0 0 0-.149l-20.36-11.135-11.135-20.36a.085.085 0 0 0-.149 0l-11.135 20.36-20.36 11.135a.086.086 0 0 0 0 .149Z" style="fill-rule:evenodd;clip-rule:evenodd;fill:#fff"/>
</svg>
