<svg viewBox="0 0 255.1 255.1" style="enable-background:new 0 0 255.1 255.1" xmlns="http://www.w3.org/2000/svg">
  <defs>
    <style>
      .st0{fill:#5a8ea2}
    </style>
  </defs>
  <path d="M44.336 127.584a.123.123 0 0 1 0-.123l41.883-71.558a.121.121 0 0 1 .104-.059h83.013a.12.12 0 0 1 .106.061l41.423 71.558a.126.126 0 0 1 0 .122l-41.423 71.479a.124.124 0 0 1-.106.061H86.323a.118.118 0 0 1-.104-.059Zm83.277-38.676c-21.304 0-38.574 17.27-38.574 38.574s17.27 38.574 38.574 38.574 38.574-17.27 38.574-38.574-17.27-38.574-38.574-38.574Z" style="fill-rule:evenodd;clip-rule:evenodd;fill:#fff"/>
</svg>
